<svg width="35" height="36" viewBox="0 0 35 36" fill="none" xmlns="http://www.w3.org/2000/svg">
<path fill-rule="evenodd" clip-rule="evenodd" d="M29.8951 10.7198C32.6943 10.7198 34.9635 8.45062 34.9635 5.65141C34.9635 2.85221 32.6943 0.583008 29.8951 0.583008C27.0959 0.583008 24.8267 2.85221 24.8267 5.65141C24.8267 8.45062 27.0959 10.7198 29.8951 10.7198Z" fill="#8055FA"/>
<path fill-rule="evenodd" clip-rule="evenodd" d="M29.8948 22.8806C32.694 22.8806 34.9632 20.6117 34.9632 17.8128C34.9632 15.014 32.694 12.7451 29.8948 12.7451C27.0956 12.7451 24.8264 15.014 24.8264 17.8128C24.8264 20.6117 27.0956 22.8806 29.8948 22.8806Z" fill="#7550FB"/>
<path fill-rule="evenodd" clip-rule="evenodd" d="M29.8948 35.4942C32.694 35.4942 34.9632 33.225 34.9632 30.4258C34.9632 27.6266 32.694 25.3574 29.8948 25.3574C27.0956 25.3574 24.8264 27.6266 24.8264 30.4258C24.8264 33.225 27.0956 35.4942 29.8948 35.4942Z" fill="#6A4AFC"/>
<path fill-rule="evenodd" clip-rule="evenodd" d="M17.2816 22.8806C20.0804 22.8806 22.3493 20.6117 22.3493 17.8128C22.3493 15.014 20.0804 12.7451 17.2816 12.7451C14.4828 12.7451 12.2139 15.014 12.2139 17.8128C12.2139 20.6117 14.4828 22.8806 17.2816 22.8806Z" fill="#6045FD"/>
<path fill-rule="evenodd" clip-rule="evenodd" d="M17.2809 35.4952C20.0797 35.4952 22.3486 33.226 22.3486 30.4268C22.3486 27.6276 20.0797 25.3584 17.2809 25.3584C14.482 25.3584 12.2131 27.6276 12.2131 30.4268C12.2131 33.226 14.482 35.4952 17.2809 35.4952Z" fill="#553FFE"/>
<path fill-rule="evenodd" clip-rule="evenodd" d="M5.11919 35.4952C7.91839 35.4952 10.1876 33.226 10.1876 30.4268C10.1876 27.6276 7.91839 25.3584 5.11919 25.3584C2.31998 25.3584 0.0507812 27.6276 0.0507812 30.4268C0.0507812 33.226 2.31998 35.4952 5.11919 35.4952Z" fill="#4A3AFF"/>
</svg>
