<svg width="249" height="34" viewBox="0 0 249 34" fill="none" xmlns="http://www.w3.org/2000/svg">
<path d="M6.24918 27.7983V25.2678C7.69514 27.6898 10.4425 28.2321 11.9969 28.2321C16.6239 28.2321 20.5642 24.2918 20.5642 18.508C20.5642 12.9772 17.0216 8.74774 11.8161 8.74774C10.0448 8.74774 8.02048 9.36227 6.75526 11.2782V1.95172H0.465332V27.7983H6.24918ZM6.61067 18.4357C6.61067 15.833 8.27352 14.2424 10.4786 14.2424C12.5391 14.2424 14.2381 15.833 14.2381 18.4357C14.2381 21.0384 12.5391 22.7374 10.4786 22.7374C8.27352 22.7374 6.61067 21.0746 6.61067 18.4357Z" fill="#0D0A2C"/>
<path d="M36.3814 8.89234C36.0922 8.78389 35.6945 8.74774 35.2246 8.74774C32.7665 8.74774 30.959 10.0853 29.983 12.3626V9.18153H23.7292V27.7983H30.0191V20.9661C30.0191 17.062 31.7904 14.64 34.9716 14.64C35.6222 14.64 36.0922 14.7123 36.3814 14.8569V8.89234Z" fill="#0D0A2C"/>
<path d="M38.8031 27.7983H45.093V9.18153H38.8031V27.7983ZM38.55 3.97607C38.55 5.85582 39.996 7.22948 41.9119 7.22948C43.8278 7.22948 45.3099 5.85582 45.3099 3.97607C45.3099 2.09632 43.8278 0.722656 41.9119 0.722656C39.996 0.722656 38.55 2.09632 38.55 3.97607Z" fill="#0D0A2C"/>
<path d="M53.7256 18.5803L47.3272 27.7983H54.3039L57.3405 22.882L60.377 27.7983H67.3537L60.9554 18.5803L67.4983 9.18153H60.3408L57.3405 14.3508L54.3401 9.18153H47.1826L53.7256 18.5803Z" fill="#0D0A2C"/>
<path d="M74.7451 12.8326H77.131V20.2793C77.131 24.6172 79.5891 27.003 83.6378 27.003C85.4814 27.003 86.8912 26.6054 87.8672 26.1354V20.8215C87.1081 21.3638 86.2044 21.5083 85.4452 21.5083C84.2885 21.5083 83.4209 20.8215 83.4209 19.231V12.8326H87.3611V7.95246H83.4209V2.92775H77.3117V7.95246H74.7451V12.8326Z" fill="#4A3AFF"/>
<path d="M107.204 18.761C107.385 18.1826 107.566 17.062 107.566 16.086C107.566 10.989 103.951 7.51867 98.6371 7.51867C93.1424 7.51867 88.9491 11.7843 88.9491 17.2789C88.9491 22.7736 93.034 27.003 99.3962 27.003C102.541 27.003 104.999 26.2077 107.457 24.0026L104.276 20.0262C103.373 20.8938 101.891 21.7614 99.8662 21.7614C97.7334 21.7614 95.709 20.8577 95.4198 18.761H107.204ZM98.4925 12.5072C100.119 12.5072 101.384 13.5194 101.493 15.11V15.1461H95.3114C95.4198 13.4471 96.8658 12.5072 98.4925 12.5072Z" fill="#4A3AFF"/>
<path d="M110.657 7.95246V26.5692H116.947V16.7728C116.947 14.4593 118.14 13.0133 119.912 13.0133C121.791 13.0133 122.804 14.1701 122.804 16.339V26.5692H129.093V16.7728C129.093 14.4593 130.359 13.0133 132.058 13.0133C133.937 13.0133 134.95 14.1701 134.95 16.339V26.5692H141.24V15.2184C141.24 10.4106 138.565 7.51867 134.046 7.51867C130.901 7.51867 129.202 8.92849 127.937 10.5552C126.672 8.567 124.647 7.51867 121.9 7.51867C119.695 7.51867 117.923 8.2778 116.658 10.1576V7.95246H110.657Z" fill="#4A3AFF"/>
<path d="M145.5 33.799H151.79V24.7618C152.983 26.4969 155.08 27.003 156.851 27.003C162.057 27.003 165.599 22.7736 165.599 17.2428C165.599 11.4589 161.551 7.51867 156.923 7.51867C155.405 7.51867 152.839 8.06091 151.284 10.4829V7.95246H145.5V33.799ZM151.646 17.3151C151.646 14.6762 153.309 13.0133 155.514 13.0133C157.574 13.0133 159.273 14.7123 159.273 17.3151C159.273 19.9178 157.574 21.5083 155.514 21.5083C153.309 21.5083 151.646 19.9178 151.646 17.3151Z" fill="#4A3AFF"/>
<path d="M168.547 21.0023C168.547 24.9064 170.789 27.003 174.693 27.003C175.958 27.003 176.934 26.7861 177.621 26.4608V21.3999C177.151 21.5806 176.717 21.6168 176.392 21.6168C174.946 21.6168 174.837 20.7131 174.837 19.8455V0.722656H168.547V21.0023Z" fill="#4A3AFF"/>
<path d="M185.397 27.003C187.855 27.003 189.482 25.9185 190.205 24.5087V26.5692H196.025V14.9292C196.025 10.3021 192.844 7.51867 187.458 7.51867C183.807 7.51867 180.806 9.10923 179.216 11.1336L182.505 15.0738C183.481 13.9532 185 12.8687 187.132 12.8687C188.687 12.8687 190.024 13.411 190.024 14.9654V15.0015L185.217 15.9414C181.312 16.7728 179.144 18.6526 179.144 21.3999C179.144 24.6895 181.782 27.003 185.397 27.003ZM190.024 18.7972V19.0864C190.024 21.1469 188.868 22.4844 186.879 22.4844C185.759 22.4844 185.144 21.906 185.144 21.0023C185.144 20.0985 185.867 19.6286 186.988 19.3756L190.024 18.7972Z" fill="#4A3AFF"/>
<path d="M198.266 12.8326H200.652V20.2793C200.652 24.6172 203.11 27.003 207.159 27.003C209.002 27.003 210.412 26.6054 211.388 26.1354V20.8215C210.629 21.3638 209.725 21.5083 208.966 21.5083C207.809 21.5083 206.942 20.8215 206.942 19.231V12.8326H210.882V7.95246H206.942V2.92775H200.833V7.95246H198.266V12.8326Z" fill="#4A3AFF"/>
<path d="M230.725 18.761C230.906 18.1826 231.087 17.062 231.087 16.086C231.087 10.989 227.472 7.51867 222.158 7.51867C216.663 7.51867 212.47 11.7843 212.47 17.2789C212.47 22.7736 216.555 27.003 222.917 27.003C226.062 27.003 228.52 26.2077 230.978 24.0026L227.797 20.0262C226.894 20.8938 225.411 21.7614 223.387 21.7614C221.254 21.7614 219.23 20.8577 218.941 18.761H230.725ZM222.013 12.5072C223.64 12.5072 224.905 13.5194 225.014 15.11V15.1461H218.832C218.941 13.4471 220.387 12.5072 222.013 12.5072Z" fill="#4A3AFF"/>
<path d="M240.613 27.003C245.24 27.003 248.349 24.4364 248.349 21.1107C248.349 17.4235 245.493 16.4475 242.565 15.2907C239.926 14.1701 238.806 13.9894 238.806 13.3025C238.806 12.6157 239.637 12.218 240.613 12.218C242.348 12.218 243.324 13.0495 243.939 14.0978L247.843 11.2782C246.686 9.07308 243.975 7.51867 240.794 7.51867C236.6 7.51867 233.094 9.54302 233.094 13.2664C233.094 16.2667 235.154 17.7488 238.806 19.0502C241.372 19.9539 242.637 20.2793 242.637 21.2553C242.637 21.9421 241.95 22.3036 240.685 22.3036C238.806 22.3036 237.36 21.1469 236.492 19.6647L232.479 22.7374C234.034 25.4847 237.143 27.003 240.613 27.003Z" fill="#4A3AFF"/>
</svg>
