<svg width="215" height="30" viewBox="0 0 215 30" fill="none" xmlns="http://www.w3.org/2000/svg">
<path d="M5.9068 24.1869V22.0018C7.15541 24.0932 9.52777 24.5615 10.87 24.5615C14.8656 24.5615 18.268 21.159 18.268 16.1646C18.268 11.3886 15.2089 7.73643 10.7139 7.73643C9.1844 7.73643 7.43634 8.26709 6.34381 9.9215V1.86796H0.912354V24.1869H5.9068ZM6.21895 16.1021C6.21895 13.8546 7.65485 12.4811 9.55898 12.4811C11.3383 12.4811 12.8054 13.8546 12.8054 16.1021C12.8054 18.3496 11.3383 19.8167 9.55898 19.8167C7.65485 19.8167 6.21895 18.3808 6.21895 16.1021Z" fill="#0D0A2C"/>
<path d="M31.9264 7.86129C31.6767 7.76764 31.3333 7.73643 30.9275 7.73643C28.8049 7.73643 27.2441 8.89139 26.4013 10.858V8.11101H21.0011V24.1869H26.4325V18.2872C26.4325 14.9159 27.9621 12.8245 30.709 12.8245C31.2709 12.8245 31.6767 12.8869 31.9264 13.0118V7.86129Z" fill="#0D0A2C"/>
<path d="M34.0176 24.1869H39.4491V8.11101H34.0176V24.1869ZM33.7991 3.61601C33.7991 5.23921 35.0477 6.42539 36.7021 6.42539C38.3565 6.42539 39.6363 5.23921 39.6363 3.61601C39.6363 1.99282 38.3565 0.806641 36.7021 0.806641C35.0477 0.806641 33.7991 1.99282 33.7991 3.61601Z" fill="#0D0A2C"/>
<path d="M46.9034 16.227L41.3783 24.1869H47.4029L50.0249 19.9416L52.647 24.1869H58.6716L53.1465 16.227L58.7964 8.11101H52.6158L50.0249 12.5748L47.4341 8.11101H41.2534L46.9034 16.227Z" fill="#0D0A2C"/>
<path d="M65.0542 11.2638H67.1144V17.6941C67.1144 21.4399 69.237 23.5001 72.7332 23.5001C74.3251 23.5001 75.5425 23.1568 76.3853 22.751V18.1623C75.7298 18.6306 74.9494 18.7554 74.2939 18.7554C73.295 18.7554 72.5459 18.1623 72.5459 16.7889V11.2638H75.9483V7.04969H72.5459V2.71077H67.2705V7.04969H65.0542V11.2638Z" fill="#4A3AFF"/>
<path d="M93.0833 16.3831C93.2394 15.8836 93.3955 14.9159 93.3955 14.0731C93.3955 9.67178 90.2739 6.67511 85.6853 6.67511C80.9406 6.67511 77.3196 10.3585 77.3196 15.1032C77.3196 19.848 80.8469 23.5001 86.3408 23.5001C89.0565 23.5001 91.1792 22.8134 93.3018 20.9093L90.5549 17.4756C89.7745 18.2248 88.4947 18.9739 86.7466 18.9739C84.9049 18.9739 83.1569 18.1935 82.9071 16.3831H93.0833ZM85.5604 10.9828C86.9651 10.9828 88.0577 11.8568 88.1513 13.2303V13.2615H82.8135C82.9071 11.7944 84.1557 10.9828 85.5604 10.9828Z" fill="#4A3AFF"/>
<path d="M96.0651 7.04969V23.1256H101.497V14.6662C101.497 12.6684 102.527 11.4198 104.056 11.4198C105.679 11.4198 106.553 12.4187 106.553 14.2916V23.1256H111.985V14.6662C111.985 12.6684 113.077 11.4198 114.545 11.4198C116.168 11.4198 117.042 12.4187 117.042 14.2916V23.1256H122.473V13.324C122.473 9.17233 120.163 6.67511 116.261 6.67511C113.546 6.67511 112.079 7.89251 110.986 9.29719C109.893 7.58035 108.145 6.67511 105.773 6.67511C103.869 6.67511 102.339 7.33063 101.247 8.95382V7.04969H96.0651Z" fill="#4A3AFF"/>
<path d="M126.152 29.3686H131.584V21.5648C132.614 23.0631 134.425 23.5001 135.954 23.5001C140.449 23.5001 143.508 19.848 143.508 15.072C143.508 10.0776 140.012 6.67511 136.016 6.67511C134.705 6.67511 132.489 7.14334 131.147 9.23476V7.04969H126.152V29.3686ZM131.459 15.1344C131.459 12.8557 132.895 11.4198 134.799 11.4198C136.578 11.4198 138.045 12.8869 138.045 15.1344C138.045 17.3819 136.578 18.7554 134.799 18.7554C132.895 18.7554 131.459 17.3819 131.459 15.1344Z" fill="#4A3AFF"/>
<path d="M146.054 18.3184C146.054 21.6897 147.989 23.5001 151.36 23.5001C152.453 23.5001 153.296 23.3128 153.889 23.0319V18.6618C153.483 18.8179 153.109 18.8491 152.828 18.8491C151.579 18.8491 151.485 18.0687 151.485 17.3195V0.806641H146.054V18.3184Z" fill="#4A3AFF"/>
<path d="M160.604 23.5001C162.727 23.5001 164.131 22.5637 164.756 21.3463V23.1256H169.781V13.0742C169.781 9.07869 167.034 6.67511 162.383 6.67511C159.231 6.67511 156.64 8.04858 155.266 9.79664L158.107 13.1991C158.95 12.2314 160.261 11.295 162.102 11.295C163.445 11.295 164.6 11.7632 164.6 13.1055V13.1367L160.448 13.9483C157.077 14.6662 155.204 16.2894 155.204 18.6618C155.204 21.5024 157.483 23.5001 160.604 23.5001ZM164.6 16.4143V16.664C164.6 18.4433 163.601 19.5982 161.884 19.5982C160.916 19.5982 160.386 19.0988 160.386 18.3184C160.386 17.538 161.01 17.1322 161.978 16.9137L164.6 16.4143Z" fill="#4A3AFF"/>
<path d="M171.717 11.2638H173.777V17.6941C173.777 21.4399 175.899 23.5001 179.395 23.5001C180.987 23.5001 182.205 23.1568 183.048 22.751V18.1623C182.392 18.6306 181.612 18.7554 180.956 18.7554C179.957 18.7554 179.208 18.1623 179.208 16.7889V11.2638H182.611V7.04969H179.208V2.71077H173.933V7.04969H171.717V11.2638Z" fill="#4A3AFF"/>
<path d="M199.746 16.3831C199.902 15.8836 200.058 14.9159 200.058 14.0731C200.058 9.67178 196.936 6.67511 192.348 6.67511C187.603 6.67511 183.982 10.3585 183.982 15.1032C183.982 19.848 187.509 23.5001 193.003 23.5001C195.719 23.5001 197.841 22.8134 199.964 20.9093L197.217 17.4756C196.437 18.2248 195.157 18.9739 193.409 18.9739C191.567 18.9739 189.819 18.1935 189.569 16.3831H199.746ZM192.223 10.9828C193.627 10.9828 194.72 11.8568 194.814 13.2303V13.2615H189.476C189.569 11.7944 190.818 10.9828 192.223 10.9828Z" fill="#4A3AFF"/>
<path d="M208.284 23.5001C212.279 23.5001 214.964 21.2839 214.964 18.4121C214.964 15.2281 212.498 14.3853 209.969 13.3864C207.691 12.4187 206.723 12.2626 206.723 11.6696C206.723 11.0765 207.441 10.7331 208.284 10.7331C209.782 10.7331 210.625 11.451 211.156 12.3563L214.527 9.9215C213.528 8.01737 211.187 6.67511 208.44 6.67511C204.819 6.67511 201.791 8.42317 201.791 11.6383C201.791 14.2292 203.57 15.509 206.723 16.6328C208.939 17.4132 210.032 17.6941 210.032 18.5369C210.032 19.13 209.439 19.4422 208.346 19.4422C206.723 19.4422 205.474 18.4433 204.725 17.1634L201.26 19.8167C202.603 22.1891 205.287 23.5001 208.284 23.5001Z" fill="#4A3AFF"/>
</svg>
