<svg width="42" height="42" viewBox="0 0 42 42" fill="none" xmlns="http://www.w3.org/2000/svg">
<path fill-rule="evenodd" clip-rule="evenodd" d="M35.4423 12.4118C38.6839 12.4118 41.3118 9.78399 41.3118 6.54235C41.3118 3.30072 38.6839 0.672852 35.4423 0.672852C32.2006 0.672852 29.5728 3.30072 29.5728 6.54235C29.5728 9.78399 32.2006 12.4118 35.4423 12.4118Z" fill="#8055FA"/>
<path fill-rule="evenodd" clip-rule="evenodd" d="M35.442 26.4943C38.6836 26.4943 41.3115 23.8667 41.3115 20.6255C41.3115 17.3843 38.6836 14.7568 35.442 14.7568C32.2004 14.7568 29.5725 17.3843 29.5725 20.6255C29.5725 23.8667 32.2004 26.4943 35.442 26.4943Z" fill="#7550FB"/>
<path fill-rule="evenodd" clip-rule="evenodd" d="M35.442 41.1033C38.6836 41.1033 41.3115 38.4754 41.3115 35.2338C41.3115 31.9921 38.6836 29.3643 35.442 29.3643C32.2004 29.3643 29.5725 31.9921 29.5725 35.2338C29.5725 38.4754 32.2004 41.1033 35.442 41.1033Z" fill="#6A4AFC"/>
<path fill-rule="evenodd" clip-rule="evenodd" d="M20.8348 26.4943C24.076 26.4943 26.7035 23.8667 26.7035 20.6255C26.7035 17.3843 24.076 14.7568 20.8348 14.7568C17.5936 14.7568 14.9661 17.3843 14.9661 20.6255C14.9661 23.8667 17.5936 26.4943 20.8348 26.4943Z" fill="#6045FD"/>
<path fill-rule="evenodd" clip-rule="evenodd" d="M20.834 41.1023C24.0752 41.1023 26.7027 38.4744 26.7027 35.2328C26.7027 31.9911 24.0752 29.3633 20.834 29.3633C17.5928 29.3633 14.9653 31.9911 14.9653 35.2328C14.9653 38.4744 17.5928 41.1023 20.834 41.1023Z" fill="#553FFE"/>
<path fill-rule="evenodd" clip-rule="evenodd" d="M6.75036 41.1033C9.99199 41.1033 12.6199 38.4754 12.6199 35.2338C12.6199 31.9921 9.99199 29.3643 6.75036 29.3643C3.50872 29.3643 0.880859 31.9921 0.880859 35.2338C0.880859 38.4754 3.50872 41.1033 6.75036 41.1033Z" fill="#4A3AFF"/>
</svg>
