<svg width="243" height="48" viewBox="0 0 243 48" fill="none" xmlns="http://www.w3.org/2000/svg">
<path fill-rule="evenodd" clip-rule="evenodd" d="M232.41 0.841976C230.433 1.03248 228.112 2.17742 226.484 3.76547C224.742 5.4644 223.565 7.82607 223.359 10.0361C223.327 10.3754 223.342 11.183 223.384 11.4086L223.412 11.5611L223.608 11.5889C223.894 11.6296 224.599 11.6051 224.961 11.542C226.342 11.3012 227.78 10.6215 229.066 9.60206C229.455 9.29383 230.173 8.56643 230.527 8.12314C231.042 7.47793 231.479 6.78843 231.832 6.06492C232.347 5.01118 232.651 4.01433 232.818 2.84037C232.866 2.50108 232.888 1.44391 232.853 1.17093C232.804 0.793997 232.813 0.81602 232.705 0.819542C232.653 0.821234 232.52 0.831342 232.41 0.841976ZM231.524 12.1525C230.992 12.1839 230.27 12.3003 229.638 12.4566C228.805 12.6624 228.18 12.8748 226.71 13.4515C225.518 13.9194 225.148 14.0497 224.669 14.1711C224.06 14.3252 223.526 14.3214 222.868 14.1582C222.402 14.0427 222.062 13.9216 220.838 13.4361C219.659 12.9689 219.23 12.8133 218.672 12.652C217.314 12.2593 216.231 12.172 214.864 12.345C213.391 12.5315 211.965 13.0198 210.679 13.7785C208.178 15.2535 206.31 17.6356 205.304 20.6319C204.561 22.845 204.301 25.3537 204.529 28.1107C204.737 30.6351 205.355 33.3147 206.312 35.8519C206.926 37.4805 207.757 39.1962 208.583 40.5401C209.337 41.7688 210.858 43.8317 211.803 44.9081C213.56 46.9103 215.19 47.7631 217.012 47.6331C217.971 47.5647 218.579 47.3937 220.055 46.7778C221.007 46.3804 221.405 46.2318 221.897 46.0894C223.387 45.6587 225.07 45.6209 226.527 45.9852C227.138 46.1378 227.489 46.2647 228.528 46.7089C229.818 47.2598 230.312 47.4155 231.124 47.527C231.485 47.5765 232.258 47.5957 232.565 47.5628C233.984 47.4108 235.279 46.7062 236.568 45.3851C237.354 44.5789 238.149 43.5653 239.293 41.9123C240.554 40.0899 241.676 37.8652 242.375 35.8062C242.587 35.1805 242.588 35.1745 242.52 35.1535C242.29 35.0823 241.409 34.5988 240.946 34.2898C238.303 32.5243 236.708 29.9791 236.363 26.9787C236.076 24.4831 236.627 22.1095 237.962 20.0837C238.736 18.9094 239.855 17.7896 241.055 16.9872C241.209 16.8843 241.335 16.7889 241.335 16.7754C241.335 16.7367 241.021 16.3165 240.749 15.9905C238.822 13.6851 236.098 12.3604 232.874 12.1603C232.526 12.1387 231.826 12.1347 231.524 12.1525Z" fill="#2D2D2D"/>
<path d="M139.234 33.6585C133.426 43.5077 124.225 40.65 121.46 38.4116C120.284 39.2107 118.221 40.9597 115.472 40.7546C109.615 40.3362 107.523 31.9681 107.523 31.9681C106.655 32.307 105.741 32.5116 104.811 32.5748C104.811 35.0309 102.678 40.8927 96.9538 40.8174C90.5313 40.7337 89.2217 31.1606 89.2217 31.1606C89.2217 31.1606 88.5815 32.0476 86.1506 32.9305C86.2719 31.0435 86.1841 40.5287 78.4854 40.6668C72.3976 40.7756 70.7533 31.01 70.7533 31.01C69.8824 31.7912 68.8043 32.3041 67.6488 32.487C67.7785 30.5707 67.5693 40.6961 59.8664 40.6626C54.6615 40.6417 52.8833 34.6459 53.0213 33.8133C53.1971 32.7547 51.264 40.809 46.2055 40.6835C44.1135 40.6208 42.5654 39.1103 41.6031 37.0978C40.2976 38.5915 38.3981 40.6835 36.2726 40.6835C32.4526 40.6835 30.7706 37.4869 31.0551 28.3657C31.0802 27.282 31.0007 26.8594 29.9254 26.6921C29.2811 26.5833 28.62 26.3824 27.9171 26.2737C27.6911 27.0226 25.7916 40.4367 19.2519 40.6919C17.0595 40.7756 15.8586 38.876 14.8712 37.466C13.3608 39.466 11.365 40.7546 8.52819 40.7546C3.71654 40.7546 0.44043 36.8635 0.44043 32.0686C0.44043 27.2737 3.71654 23.3825 8.52819 23.3825C9.16641 23.3811 9.79927 23.4989 10.3943 23.7298C8.79597 9.17765 12.57 6.90571 15.8712 6.90571C19.0427 6.90571 24.4568 14.2613 16.8377 32.9263C18.5113 38.4911 22.1765 38.1773 23.9297 26.7214C24.2853 24.3908 23.3313 21.2486 24.8167 20.8093C27.5279 20.006 27.8166 22.4118 29.0886 22.8135C30.4317 23.2319 31.2183 23.1942 32.507 23.4662C34.7119 23.8846 35.5739 25.0812 35.3061 27.7213C34.9839 31.0686 34.4191 35.9221 36.1429 36.5078C37.3981 36.9262 39.6491 34.3656 40.0466 32.9556C40.363 32.0104 40.5364 31.0232 40.5612 30.0268C40.5416 28.182 40.7084 26.3401 41.0591 24.5289C41.2223 23.8846 41.4022 23.4536 42.1344 23.4243C42.7369 23.4243 43.8374 23.2277 44.3185 23.6042C44.9629 24.0896 44.8834 24.5833 44.8081 25.8762C44.0591 44.3404 49.8289 35.1229 51.5569 27.7423C50.9419 19.3993 51.3645 7.04797 56.5778 6.82203C59.2974 6.71325 60.4982 8.89313 60.6321 10.5207C61.0045 15.1232 58.9125 22.7214 56.1552 27.8385C54.582 38.2986 63.0421 40.3446 64.3936 32.0225C62.1802 30.9682 59.7911 26.7088 61.7325 24.6335C62.8245 23.4703 67.3726 25.144 67.4479 28.7925C69.678 28.1941 69.9584 26.9347 70.0086 27.1439C69.3935 18.801 69.9625 7.06052 75.1926 6.83458C77.9122 6.7258 79.113 8.90568 79.2469 10.5333C79.6193 15.1357 77.5273 22.734 74.77 27.851C73.1968 38.3112 81.6569 40.3572 83.0084 32.0351C81.3682 31.7171 77.908 27.1858 79.9038 24.6461C80.9708 23.2862 85.5021 26.1105 86.0084 28.9263C88.1506 28.3197 88.4435 27.1021 88.4727 27.3071C87.8577 18.9641 88.4267 7.2237 93.6568 6.99776C96.3764 6.88898 97.5772 9.06886 97.7111 10.6965C98.0835 15.2989 95.9915 22.8971 93.2342 28.0142C91.661 38.4743 100.121 40.5203 101.473 32.1983C99.2216 31.8217 96.0333 27.0393 98.5939 24.5917C99.6232 23.6126 103.556 26.1523 104.477 29.0477C105.252 29.0106 106.014 28.829 106.724 28.5121C104.682 18.7173 106.201 6.96011 111.828 6.86388C114.87 6.80948 117.841 8.5082 116.535 17.8261C115.28 26.7172 110.811 30.4493 110.824 30.5079C111.083 31.5748 113.38 40.4869 119.167 35.784C118.829 35.079 118.572 34.3379 118.401 33.5748C117.443 28.6879 119.326 23.1649 124.443 22.2779C127.372 21.7674 130.137 23.1942 130.577 26.4117C131.296 31.6794 126.539 35.4953 124.719 36.3237C123.907 35.8635 132.062 41.0936 136.903 30.6125C137.183 30.0142 137.522 30.0644 137.962 30.374C138.288 30.5749 140.054 32.2443 139.234 33.6585ZM12.0386 30.7757C11.7917 30.0393 11.2855 28.4159 11.1097 27.713C10.1265 26.8762 9.43613 26.7172 8.18091 26.7172C5.37342 26.7172 3.72072 29.3113 3.72072 32.1104C3.72072 34.9095 5.51986 37.5036 8.32317 37.5036C10.7541 37.5036 12.6076 35.83 13.1725 33.5079C12.7373 32.6125 12.344 31.7757 12.0177 30.7757H12.0386ZM15.8042 10.7592C13.8336 10.7592 13.1641 15.4663 13.2938 19.4788C13.4171 22.2361 13.9632 24.9582 14.913 27.5498C15.0427 27.7255 15.0176 27.6126 15.1348 27.7966C18.549 20.2905 17.1306 10.755 15.7917 10.755L15.8042 10.7592ZM56.8748 10.9057C54.3268 10.6128 54.3435 21.2319 54.6573 23.6126C55.9794 21.4955 58.2807 11.4789 56.8748 10.9057ZM75.4897 10.9057C72.9416 10.6128 72.9583 21.2319 73.2721 23.6126C74.5859 21.4955 76.8871 11.4747 75.4813 10.9057H75.4897ZM93.958 11.0521C91.41 10.7592 91.4267 21.3783 91.7405 23.7632C93.0626 21.6461 95.3639 11.6295 93.958 11.0521ZM112.129 10.2822C108.159 11.0814 109.083 24.3239 109.686 26.646C114.364 20.2193 114.46 10.0437 112.129 10.2822ZM127.016 26.8301C126.885 26.4421 126.623 26.1118 126.275 25.8957C125.927 25.6797 125.514 25.5914 125.108 25.6461C123.112 25.918 121.179 28.4033 121.928 32.1815C122.047 32.7356 122.241 33.2707 122.506 33.7715C126.958 30.7799 127.334 28.4284 127.004 26.8301H127.016ZM42.9169 20.508C42.2013 20.5066 41.5118 20.239 40.9825 19.7574C40.4532 19.2758 40.122 18.6145 40.0533 17.9022C39.9845 17.1899 40.1832 16.4775 40.6106 15.9035C41.0379 15.3296 41.6635 14.9351 42.3656 14.7968C43.0677 14.6585 43.7962 14.7863 44.4093 15.1553C45.0224 15.5243 45.4764 16.1082 45.6829 16.7933C45.8894 17.4785 45.8337 18.216 45.5266 18.8623C45.2196 19.5087 44.683 20.0177 44.0215 20.2905C43.6711 20.4349 43.2958 20.5088 42.9169 20.508Z" fill="#2D2D2D"/>
</svg>
